name rise44.9368peak50.754fall52.0217.mot
datacolumns 19
datarows 17
range 7.82164400000000 7.84830600000000
endheader
time	ground_force1_vx	ground_force1_vy	ground_force1_vz	ground_force1_px	ground_force1_py	ground_force1_pz	ground_force2_vx	ground_force2_vy	ground_force2_vz	ground_force2_px	ground_force2_py	ground_force2_pz	ground_torque1_x	ground_torque1_y	ground_torque1_z	ground_torque2_x	ground_torque2_y	ground_torque2_z	
7.82164400000000	-8.61962100000000	40.98569400000000	-10.32644300000000	0.39067300000000	0.00000000000000	0.09588400000000	-59.41533100000000	791.55897200000004	-61.93103000000000	0.19278100000000	0.00000000000000	-0.11225400000000	0.00000000000000	-8.13588300000000	0.00000000000000	0.00000000000000	-34.54929100000000	0.00000000000000	
7.82330600000000	-9.48595000000000	48.03230100000000	-11.62061400000000	0.39493800000000	0.00000000000000	0.09727900000000	-60.20786300000000	789.39023699999996	-61.55696100000000	0.19180400000000	0.00000000000000	-0.11217100000000	0.00000000000000	-9.22575500000000	0.00000000000000	0.00000000000000	-34.47391400000000	0.00000000000000	
7.82497000000000	-10.19634600000000	55.16733000000000	-12.79889000000000	0.39880600000000	0.00000000000000	0.09854600000000	-61.00501000000000	787.09858599999995	-61.15773200000000	0.19082400000000	0.00000000000000	-0.11208500000000	0.00000000000000	-10.23914300000000	0.00000000000000	0.00000000000000	-34.39355800000000	0.00000000000000	
7.82664400000000	-10.72669000000000	62.29934400000000	-13.83363700000000	0.40233800000000	0.00000000000000	0.09970400000000	-61.80619300000000	784.68154400000003	-60.73324300000000	0.18984000000000	0.00000000000000	-0.11199500000000	0.00000000000000	-11.15345500000000	0.00000000000000	0.00000000000000	-34.30820700000000	0.00000000000000	
7.82830700000000	-11.06210300000000	69.35945800000000	-14.70632600000000	0.40558300000000	0.00000000000000	0.10077000000000	-62.61076500000000	782.13657100000000	-60.28343700000000	0.18885400000000	0.00000000000000	-0.11190200000000	0.00000000000000	-11.95310500000000	0.00000000000000	0.00000000000000	-34.21784100000000	0.00000000000000	
7.82997300000000	-11.19685700000000	76.30347000000000	-15.40768400000000	0.40858400000000	0.00000000000000	0.10175500000000	-63.41801200000000	779.46107199999994	-59.80829600000000	0.18786500000000	0.00000000000000	-0.11180500000000	0.00000000000000	-12.62972900000000	0.00000000000000	0.00000000000000	-34.12243700000000	0.00000000000000	
7.83163900000000	-11.13356600000000	83.11160300000000	-15.93704700000000	0.41137200000000	0.00000000000000	0.10267100000000	-64.22714999999999	776.65239999999994	-59.30784700000000	0.18687300000000	0.00000000000000	-0.11170300000000	0.00000000000000	-13.18177400000000	0.00000000000000	0.00000000000000	-34.02196800000000	0.00000000000000	
7.83330700000000	-10.88182600000000	89.78628100000000	-16.30113700000000	0.41397600000000	0.00000000000000	0.10352500000000	-65.03732700000000	773.70786099999998	-58.78216100000000	0.18587900000000	0.00000000000000	-0.11159900000000	0.00000000000000	-13.61359000000000	0.00000000000000	0.00000000000000	-33.91640100000000	0.00000000000000	
7.83497500000000	-10.45652900000000	96.34846300000000	-16.51243200000000	0.41641800000000	0.00000000000000	0.10432500000000	-65.84762000000001	770.62472200000002	-58.23135300000000	0.18488400000000	0.00000000000000	-0.11149000000000	0.00000000000000	-13.93420000000000	0.00000000000000	0.00000000000000	-33.80570100000000	0.00000000000000	
7.83663900000000	-9.87602900000000	102.83308400000000	-16.58736100000000	0.41871900000000	0.00000000000000	0.10507700000000	-66.65703400000000	767.40022299999998	-57.65558600000000	0.18388700000000	0.00000000000000	-0.11137700000000	0.00000000000000	-14.15589200000000	0.00000000000000	0.00000000000000	-33.68982600000000	0.00000000000000	
7.83831100000000	-9.16035300000000	109.28415000000000	-16.54447800000000	0.42089300000000	0.00000000000000	0.10578600000000	-67.46450600000000	764.03157799999997	-57.05506800000000	0.18288900000000	0.00000000000000	-0.11126100000000	0.00000000000000	-14.29279300000000	0.00000000000000	0.00000000000000	-33.56872900000000	0.00000000000000	
7.83997600000000	-8.32958500000000	115.74992800000000	-16.40279700000000	0.42295600000000	0.00000000000000	0.10645600000000	-68.26890200000000	760.51598999999999	-56.43005400000000	0.18189100000000	0.00000000000000	-0.11114100000000	0.00000000000000	-14.35953400000000	0.00000000000000	0.00000000000000	-33.44235900000000	0.00000000000000	
7.84163700000000	-7.40252600000000	122.27861500000000	-16.18036200000000	0.42491800000000	0.00000000000000	0.10709100000000	-69.06901700000000	756.85065899999995	-55.78084900000000	0.18089200000000	0.00000000000000	-0.11101700000000	0.00000000000000	-14.37010500000000	0.00000000000000	0.00000000000000	-33.31065600000000	0.00000000000000	
7.84330900000000	-6.39568600000000	128.91473199999999	-15.89314800000000	0.42679100000000	0.00000000000000	0.10769400000000	-69.86357800000000	753.03279199999997	-55.10780300000000	0.17989300000000	0.00000000000000	-0.11089000000000	0.00000000000000	-14.33695600000000	0.00000000000000	0.00000000000000	-33.17355700000000	0.00000000000000	
7.84497600000000	-5.32262900000000	135.69639900000001	-15.55431100000000	0.42858300000000	0.00000000000000	0.10826700000000	-70.65124500000000	749.05961900000000	-54.41131700000000	0.17889600000000	0.00000000000000	-0.11075900000000	0.00000000000000	-14.27036800000000	0.00000000000000	0.00000000000000	-33.03098800000000	0.00000000000000	
7.84664100000000	-4.19366000000000	142.65354500000001	-15.17378000000000	0.43030100000000	0.00000000000000	0.10881400000000	-71.43060900000000	744.92840000000001	-53.69183900000000	0.17789900000000	0.00000000000000	-0.11062400000000	0.00000000000000	-14.17810300000000	0.00000000000000	0.00000000000000	-32.88287300000000	0.00000000000000	
7.84830600000000	-3.01581400000000	149.80701600000000	-14.75817000000000	0.43195100000000	0.00000000000000	0.10933700000000	-72.20020000000000	740.63644399999998	-52.94986500000000	0.17690500000000	0.00000000000000	-0.11048500000000	0.00000000000000	-14.06529900000000	0.00000000000000	0.00000000000000	-32.72912700000000	0.00000000000000	
